<svg height="17" viewBox="0 0 23 17" width="23" xmlns="http://www.w3.org/2000/svg"><path d="m122.224473 165.487855c.34501.431262.275088 1.060554-.156174 1.405564s-1.060554.275088-1.405563-.156174l-4.502951-5.628688 4.506852-5.562276c.347685-.429107.9774-.495113 1.406508-.147427.429107.347685.495113.977401.147427 1.406508l-3.493148 4.311181zm10.15448 0 3.497049-4.371312-3.493148-4.311181c-.347685-.429107-.28168-1.058823.147427-1.406508.429108-.347686 1.058823-.28168 1.406508.147427l4.506852 5.562276-4.50295 5.628688c-.34501.431262-.974302.501184-1.405564.156174s-.501184-.974302-.156174-1.405564zm-1.973825-11.100584-4 14c-.151724.531035-.70521.838527-1.236245.686803s-.838527-.70521-.686803-1.236245l4-14c.151725-.531035.70521-.838527 1.236246-.686803.531035.151725.838527.70521.686802 1.236245z" transform="translate(-116 -153)"/></svg>